<?xml version="1.0" encoding="utf-8"?>
<!-- Generator: Adobe Illustrator 26.0.1, SVG Export Plug-In . SVG Version: 6.00 Build 0)  -->
<svg version="1.1" id="Warstwa_1" xmlns="http://www.w3.org/2000/svg" xmlns:xlink="http://www.w3.org/1999/xlink" x="0px" y="0px"
	 viewBox="0 0 24 24" style="enable-background:new 0 0 24 24;" xml:space="preserve">
<style type="text/css">
	.st0{fill:#FFFFFF;}
</style>
<path class="st0" d="M3,23.5c-0.7,0-1.3-0.3-1.8-0.8c-0.5-0.5-0.8-1.1-0.8-1.8v-5.1H3V21h5.1v2.6H3z M15.8,23.5V21H21v-5.1h2.6V21
	c0,0.7-0.3,1.3-0.8,1.8c-0.5,0.5-1.1,0.8-1.8,0.8H15.8z M0.5,8.2V3c0-0.7,0.3-1.3,0.8-1.8S2.3,0.5,3,0.5h5.1V3H3v5.1H0.5z M21,8.2V3
	h-5.1V0.5H21c0.7,0,1.3,0.3,1.8,0.8s0.8,1.1,0.8,1.8v5.1H21z"/>
</svg>
